<svg id="visual" viewBox="0 0 900 600" width="900" height="600" xmlns="http://www.w3.org/2000/svg" xmlns:xlink="http://www.w3.org/1999/xlink" version="1.1"><rect x="0" y="0" width="900" height="600" fill="#b1c6d7"></rect><path d="M0 427L21.5 425.2C43 423.3 86 419.7 128.8 408.2C171.7 396.7 214.3 377.3 257.2 376.8C300 376.3 343 394.7 385.8 408C428.7 421.3 471.3 429.7 514.2 430.7C557 431.7 600 425.3 642.8 411.5C685.7 397.7 728.3 376.3 771.2 376.7C814 377 857 399 878.5 410L900 421L900 601L878.5 601C857 601 814 601 771.2 601C728.3 601 685.7 601 642.8 601C600 601 557 601 514.2 601C471.3 601 428.7 601 385.8 601C343 601 300 601 257.2 601C214.3 601 171.7 601 128.8 601C86 601 43 601 21.5 601L0 601Z" fill="#fa7268"></path><path d="M0 423L21.5 418.8C43 414.7 86 406.3 128.8 406.3C171.7 406.3 214.3 414.7 257.2 415.5C300 416.3 343 409.7 385.8 408.8C428.7 408 471.3 413 514.2 414.3C557 415.7 600 413.3 642.8 411.3C685.7 409.3 728.3 407.7 771.2 408.7C814 409.7 857 413.3 878.5 415.2L900 417L900 601L878.5 601C857 601 814 601 771.2 601C728.3 601 685.7 601 642.8 601C600 601 557 601 514.2 601C471.3 601 428.7 601 385.8 601C343 601 300 601 257.2 601C214.3 601 171.7 601 128.8 601C86 601 43 601 21.5 601L0 601Z" fill="#ef5f67"></path><path d="M0 509L21.5 508.5C43 508 86 507 128.8 501.8C171.7 496.7 214.3 487.3 257.2 486.7C300 486 343 494 385.8 498.8C428.7 503.7 471.3 505.3 514.2 501.5C557 497.7 600 488.3 642.8 488.7C685.7 489 728.3 499 771.2 497.3C814 495.7 857 482.3 878.5 475.7L900 469L900 601L878.5 601C857 601 814 601 771.2 601C728.3 601 685.7 601 642.8 601C600 601 557 601 514.2 601C471.3 601 428.7 601 385.8 601C343 601 300 601 257.2 601C214.3 601 171.7 601 128.8 601C86 601 43 601 21.5 601L0 601Z" fill="#e34c67"></path><path d="M0 487L21.5 491.8C43 496.7 86 506.3 128.8 506C171.7 505.7 214.3 495.3 257.2 490.7C300 486 343 487 385.8 495.5C428.7 504 471.3 520 514.2 526.5C557 533 600 530 642.8 523.7C685.7 517.3 728.3 507.7 771.2 503.5C814 499.3 857 500.7 878.5 501.3L900 502L900 601L878.5 601C857 601 814 601 771.2 601C728.3 601 685.7 601 642.8 601C600 601 557 601 514.2 601C471.3 601 428.7 601 385.8 601C343 601 300 601 257.2 601C214.3 601 171.7 601 128.8 601C86 601 43 601 21.5 601L0 601Z" fill="#d53867"></path><path d="M0 566L21.5 564C43 562 86 558 128.8 552.8C171.7 547.7 214.3 541.3 257.2 537.7C300 534 343 533 385.8 532.2C428.7 531.3 471.3 530.7 514.2 535C557 539.3 600 548.7 642.8 555.3C685.7 562 728.3 566 771.2 560.5C814 555 857 540 878.5 532.5L900 525L900 601L878.5 601C857 601 814 601 771.2 601C728.3 601 685.7 601 642.8 601C600 601 557 601 514.2 601C471.3 601 428.7 601 385.8 601C343 601 300 601 257.2 601C214.3 601 171.7 601 128.8 601C86 601 43 601 21.5 601L0 601Z" fill="#c62368"></path></svg>