<svg id="visual" viewBox="0 0 900 600" width="900" height="600" xmlns="http://www.w3.org/2000/svg" xmlns:xlink="http://www.w3.org/1999/xlink" version="1.1"><path d="M0 67L82 67L82 97L164 97L164 61L245 61L245 133L327 133L327 49L409 49L409 121L491 121L491 121L573 121L573 67L655 67L655 67L736 67L736 109L818 109L818 79L900 79L900 103L900 0L900 0L818 0L818 0L736 0L736 0L655 0L655 0L573 0L573 0L491 0L491 0L409 0L409 0L327 0L327 0L245 0L245 0L164 0L164 0L82 0L82 0L0 0Z" fill="#bfdbf3"></path><path d="M0 121L82 121L82 151L164 151L164 121L245 121L245 181L327 181L327 139L409 139L409 163L491 163L491 205L573 205L573 115L655 115L655 145L736 145L736 151L818 151L818 145L900 145L900 175L900 101L900 77L818 77L818 107L736 107L736 65L655 65L655 65L573 65L573 119L491 119L491 119L409 119L409 47L327 47L327 131L245 131L245 59L164 59L164 95L82 95L82 65L0 65Z" fill="#a6d0f4"></path><path d="M0 223L82 223L82 319L164 319L164 247L245 247L245 271L327 271L327 289L409 289L409 367L491 367L491 409L573 409L573 247L655 247L655 259L736 259L736 361L818 361L818 289L900 289L900 319L900 173L900 143L818 143L818 149L736 149L736 143L655 143L655 113L573 113L573 203L491 203L491 161L409 161L409 137L327 137L327 179L245 179L245 119L164 119L164 149L82 149L82 119L0 119Z" fill="#8cc4f5"></path><path d="M0 373L82 373L82 439L164 439L164 403L245 403L245 379L327 379L327 367L409 367L409 475L491 475L491 493L573 493L573 385L655 385L655 421L736 421L736 505L818 505L818 361L900 361L900 469L900 317L900 287L818 287L818 359L736 359L736 257L655 257L655 245L573 245L573 407L491 407L491 365L409 365L409 287L327 287L327 269L245 269L245 245L164 245L164 317L82 317L82 221L0 221Z" fill="#70b8f6"></path><path d="M0 601L82 601L82 601L164 601L164 601L245 601L245 601L327 601L327 601L409 601L409 601L491 601L491 601L573 601L573 601L655 601L655 601L736 601L736 601L818 601L818 601L900 601L900 601L900 467L900 359L818 359L818 503L736 503L736 419L655 419L655 383L573 383L573 491L491 491L491 473L409 473L409 365L327 365L327 377L245 377L245 401L164 401L164 437L82 437L82 371L0 371Z" fill="#4facf7"></path></svg>