<svg id="visual" viewBox="0 0 900 600" width="900" height="600" xmlns="http://www.w3.org/2000/svg" xmlns:xlink="http://www.w3.org/1999/xlink" version="1.1"><path d="M0 205L82 205L82 133L164 133L164 301L245 301L245 205L327 205L327 187L409 187L409 79L491 79L491 109L573 109L573 163L655 163L655 187L736 187L736 91L818 91L818 157L900 157L900 145L900 0L900 0L818 0L818 0L736 0L736 0L655 0L655 0L573 0L573 0L491 0L491 0L409 0L409 0L327 0L327 0L245 0L245 0L164 0L164 0L82 0L82 0L0 0Z" fill="#c1bff2"></path><path d="M0 277L82 277L82 187L164 187L164 361L245 361L245 253L327 253L327 253L409 253L409 169L491 169L491 193L573 193L573 223L655 223L655 271L736 271L736 139L818 139L818 259L900 259L900 229L900 143L900 155L818 155L818 89L736 89L736 185L655 185L655 161L573 161L573 107L491 107L491 77L409 77L409 185L327 185L327 203L245 203L245 299L164 299L164 131L82 131L82 203L0 203Z" fill="#83b8eb"></path><path d="M0 445L82 445L82 343L164 343L164 469L245 469L245 325L327 325L327 421L409 421L409 355L491 355L491 403L573 403L573 385L655 385L655 463L736 463L736 373L818 373L818 427L900 427L900 349L900 227L900 257L818 257L818 137L736 137L736 269L655 269L655 221L573 221L573 191L491 191L491 167L409 167L409 251L327 251L327 251L245 251L245 359L164 359L164 185L82 185L82 275L0 275Z" fill="#34b0d3"></path><path d="M0 511L82 511L82 493L164 493L164 541L245 541L245 481L327 481L327 487L409 487L409 487L491 487L491 523L573 523L573 535L655 535L655 559L736 559L736 541L818 541L818 529L900 529L900 493L900 347L900 425L818 425L818 371L736 371L736 461L655 461L655 383L573 383L573 401L491 401L491 353L409 353L409 419L327 419L327 323L245 323L245 467L164 467L164 341L82 341L82 443L0 443Z" fill="#00a4a9"></path><path d="M0 601L82 601L82 601L164 601L164 601L245 601L245 601L327 601L327 601L409 601L409 601L491 601L491 601L573 601L573 601L655 601L655 601L736 601L736 601L818 601L818 601L900 601L900 601L900 491L900 527L818 527L818 539L736 539L736 557L655 557L655 533L573 533L573 521L491 521L491 485L409 485L409 485L327 485L327 479L245 479L245 539L164 539L164 491L82 491L82 509L0 509Z" fill="#009473"></path></svg>