<svg id="visual" viewBox="0 0 440 932" width="440" height="932" xmlns="http://www.w3.org/2000/svg" xmlns:xlink="http://www.w3.org/1999/xlink" version="1.1"><path d="M0 318L40 318L40 206L80 206L80 467L120 467L120 318L160 318L160 290L200 290L200 122L240 122L240 169L280 169L280 253L320 253L320 290L360 290L360 141L400 141L400 243L440 243L440 225L440 0L440 0L400 0L400 0L360 0L360 0L320 0L320 0L280 0L280 0L240 0L240 0L200 0L200 0L160 0L160 0L120 0L120 0L80 0L80 0L40 0L40 0L0 0Z" fill="#c1bff2"></path><path d="M0 430L40 430L40 290L80 290L80 560L120 560L120 392L160 392L160 392L200 392L200 262L240 262L240 299L280 299L280 346L320 346L320 420L360 420L360 215L400 215L400 402L440 402L440 355L440 223L440 241L400 241L400 139L360 139L360 288L320 288L320 251L280 251L280 167L240 167L240 120L200 120L200 288L160 288L160 316L120 316L120 465L80 465L80 204L40 204L40 316L0 316Z" fill="#83b8eb"></path><path d="M0 691L40 691L40 532L80 532L80 728L120 728L120 504L160 504L160 653L200 653L200 551L240 551L240 625L280 625L280 597L320 597L320 719L360 719L360 579L400 579L400 663L440 663L440 542L440 353L440 400L400 400L400 213L360 213L360 418L320 418L320 344L280 344L280 297L240 297L240 260L200 260L200 390L160 390L160 390L120 390L120 558L80 558L80 288L40 288L40 428L0 428Z" fill="#34b0d3"></path><path d="M0 793L40 793L40 765L80 765L80 840L120 840L120 747L160 747L160 756L200 756L200 756L240 756L240 812L280 812L280 830L320 830L320 868L360 868L360 840L400 840L400 821L440 821L440 765L440 540L440 661L400 661L400 577L360 577L360 717L320 717L320 595L280 595L280 623L240 623L240 549L200 549L200 651L160 651L160 502L120 502L120 726L80 726L80 530L40 530L40 689L0 689Z" fill="#00a4a9"></path><path d="M0 933L40 933L40 933L80 933L80 933L120 933L120 933L160 933L160 933L200 933L200 933L240 933L240 933L280 933L280 933L320 933L320 933L360 933L360 933L400 933L400 933L440 933L440 933L440 763L440 819L400 819L400 838L360 838L360 866L320 866L320 828L280 828L280 810L240 810L240 754L200 754L200 754L160 754L160 745L120 745L120 838L80 838L80 763L40 763L40 791L0 791Z" fill="#009473"></path></svg>